<?xml version="1.0" standalone="no"?>
<!DOCTYPE svg PUBLIC "-//W3C//DTD SVG 20010904//EN"
 "http://www.w3.org/TR/2001/REC-SVG-20010904/DTD/svg10.dtd">
<svg version="1.0" xmlns="http://www.w3.org/2000/svg"
 width="2009.000000pt" height="2009.000000pt" viewBox="0 0 2009.000000 2009.000000"
 preserveAspectRatio="xMidYMid meet">
<metadata>
Created by potrace 1.14, written by Peter Selinger 2001-2017
</metadata>
<g transform="translate(0.000000,2009.000000) scale(0.100000,-0.100000)"
fill="#000000" stroke="none">
<path d="M9935 19736 c-199 -46 -363 -171 -454 -345 -81 -157 -75 -47 -78
-1413 -2 -670 -5 -1218 -7 -1218 -3 0 -348 205 -768 456 -420 251 -794 471
-832 490 -206 100 -475 82 -670 -46 -190 -124 -296 -325 -296 -561 0 -203 59
-349 195 -484 79 -78 115 -100 1228 -764 l1147 -683 0 -1985 0 -1985 -22 14
c-13 8 -798 461 -1745 1008 l-1722 994 -5 50 c-3 28 -14 600 -26 1271 -11 671
-25 1264 -30 1317 -24 237 -156 431 -362 533 -441 218 -955 -71 -983 -552 -3
-49 2 -478 12 -956 10 -477 17 -867 16 -867 -1 0 -435 250 -965 556 -529 306
-985 568 -1013 581 -98 50 -155 65 -276 70 -219 10 -371 -47 -520 -196 -135
-135 -192 -273 -193 -471 0 -129 13 -188 71 -310 39 -80 58 -107 127 -175 80
-78 101 -91 1071 -650 544 -313 1012 -584 1042 -600 l53 -31 -807 -454 c-445
-250 -834 -472 -865 -493 -240 -159 -348 -498 -250 -781 85 -247 288 -410 558
-447 100 -14 220 -1 318 34 33 13 588 319 1231 682 643 363 1176 659 1185 659
15 0 3410 -1955 3410 -1964 0 -8 -3461 -2003 -3475 -2003 -7 0 -522 286 -1146
635 -624 350 -1153 646 -1177 657 -121 61 -320 79 -466 41 -122 -31 -209 -82
-307 -180 -138 -137 -193 -273 -193 -475 0 -200 56 -338 194 -475 l85 -86 810
-453 c446 -249 813 -456 817 -459 4 -4 -446 -268 -1000 -587 -987 -569 -1008
-581 -1088 -660 -69 -68 -88 -95 -127 -175 -58 -122 -71 -181 -71 -310 1 -198
58 -336 193 -470 141 -141 285 -200 485 -200 117 0 191 16 291 64 39 18 514
289 1056 603 l986 569 -4 -155 c-8 -360 -23 -1333 -23 -1546 0 -263 6 -301 72
-435 32 -65 58 -101 117 -160 135 -133 260 -188 447 -197 213 -11 367 48 515
196 70 70 94 102 127 171 72 150 68 89 93 1569 15 927 25 1340 33 1348 6 6
769 449 1696 983 927 535 1700 981 1718 992 l32 20 0 -2019 -1 -2018 -652
-389 c-1715 -1023 -1654 -986 -1728 -1060 -53 -52 -80 -90 -114 -160 -65 -132
-78 -194 -73 -346 5 -140 28 -224 90 -327 43 -72 149 -179 221 -222 176 -104
401 -127 595 -59 37 13 382 212 860 498 l797 476 5 -1186 c6 -1329 0 -1225 81
-1381 78 -149 212 -264 378 -323 80 -28 96 -31 221 -31 125 0 141 3 221 31
166 59 300 174 378 323 81 156 75 50 81 1402 l5 1207 760 -455 c418 -250 795
-472 839 -493 216 -107 484 -90 683 42 191 128 293 324 293 562 0 125 -19 206
-72 315 -32 68 -56 100 -122 165 -78 77 -122 104 -1231 765 l-1150 686 -3
1998 c-1 1099 1 1996 5 1994 5 -3 789 -456 1743 -1007 954 -551 1739 -1005
1744 -1010 5 -5 19 -528 32 -1187 29 -1499 29 -1505 48 -1578 50 -188 177
-345 348 -429 344 -171 747 -39 914 299 79 159 77 120 56 1175 -11 509 -19
925 -18 926 1 1 424 -244 941 -543 517 -299 981 -564 1030 -588 119 -59 187
-75 311 -75 200 0 344 59 485 200 135 134 192 272 193 470 0 129 -13 188 -71
310 -39 80 -58 107 -127 175 -80 79 -100 91 -1104 669 -562 324 -1022 592
-1022 595 1 3 357 206 793 451 435 245 817 462 849 483 210 139 324 424 274
687 -37 201 -172 383 -346 468 -122 60 -193 76 -330 76 -100 -1 -126 -5 -200
-30 -64 -22 -381 -196 -1252 -687 l-1167 -658 -1720 993 c-947 546 -1721 995
-1721 998 0 7 3443 1993 3455 1993 6 0 521 -287 1145 -638 624 -350 1161 -650
1194 -667 187 -94 436 -91 629 9 103 53 231 182 280 283 54 112 71 187 71 315
-1 200 -57 338 -194 475 l-85 86 -832 464 c-458 256 -832 467 -832 470 0 3
457 268 1016 590 1000 575 1018 586 1099 665 69 68 88 95 127 175 58 122 71
181 71 310 -1 198 -58 336 -193 471 -149 149 -301 206 -520 196 -124 -5 -178
-20 -286 -75 -33 -17 -496 -283 -1030 -591 -533 -308 -970 -559 -971 -558 0 1
5 308 12 682 7 374 13 800 13 946 1 249 -1 272 -22 345 -60 209 -220 378 -423
449 -106 36 -267 45 -376 21 -92 -20 -216 -80 -280 -134 -116 -97 -205 -242
-233 -377 -11 -55 -19 -349 -37 -1397 l-22 -1328 -1711 -987 c-940 -543 -1720
-993 -1732 -1001 l-23 -14 0 2000 0 2000 1153 688 c1133 676 1153 689 1234
770 95 94 151 194 179 321 23 104 16 283 -15 373 -49 142 -163 286 -285 359
-181 108 -418 128 -611 52 -38 -15 -425 -240 -859 -499 -433 -260 -790 -472
-792 -472 -2 0 -5 541 -7 1203 -3 1349 3 1242 -78 1398 -78 150 -214 265 -378
322 -104 36 -266 46 -366 23z"/>
</g>
</svg>
